<svg width="704" height="254" viewBox="0 0 704 254" fill="none" xmlns="http://www.w3.org/2000/svg">
<rect width="704" height="254" fill="white"/>
<rect x="562" y="121" width="40" height="7.85714" fill="#1F4E80" stroke="#D9D9D9" stroke-width="0.5"/>
<rect x="562" y="128.857" width="40" height="7.85714" fill="#52390E" stroke="#D9D9D9" stroke-width="0.5"/>
<rect x="562" y="136.714" width="40" height="7.85714" fill="#2E357E" stroke="#D9D9D9" stroke-width="0.5"/>
<rect x="562" y="144.571" width="40" height="7.85714" fill="#224524" stroke="#D9D9D9" stroke-width="0.5"/>
<rect x="562" y="152.429" width="40" height="7.85714" fill="#731F1D" stroke="#D9D9D9" stroke-width="0.5"/>
<rect x="562" y="160.286" width="40" height="7.85714" fill="#493D11" stroke="#D9D9D9" stroke-width="0.5"/>
<rect x="562" y="168.143" width="40" height="7.85714" fill="#4E3163" stroke="#D9D9D9" stroke-width="0.5"/>
<rect x="102" y="121" width="40" height="7.42857" fill="#E9F1F7" stroke="#D9D9D9" stroke-width="0.5"/>
<rect x="102" y="128.429" width="40" height="7.42857" fill="#FDF2DF" stroke="#D9D9D9" stroke-width="0.5"/>
<rect x="102" y="135.857" width="40" height="7.42857" fill="#F3F3FB" stroke="#D9D9D9" stroke-width="0.5"/>
<rect x="102" y="143.286" width="40" height="7.42857" fill="#EFF6F0" stroke="#D9D9D9" stroke-width="0.5"/>
<rect x="102" y="150.714" width="40" height="7.42857" fill="#FCF2F2" stroke="#D9D9D9" stroke-width="0.5"/>
<rect x="102" y="158.143" width="40" height="7.42857" fill="#FFF4CB" stroke="#D9D9D9" stroke-width="0.5"/>
<rect x="102" y="165.571" width="40" height="7.42857" fill="#F6F3F8" stroke="#D9D9D9" stroke-width="0.5"/>
<path d="M22 24H352V176H22V24Z" fill="url(#paint0_linear_873_27874)"/>
<path d="M352 24H682V176H352V24Z" fill="url(#paint1_linear_873_27874)"/>
<path d="M117.711 148.072C116.421 148.072 115.57 147.379 115.491 146.358L115.487 146.307H116.631L116.635 146.35C116.686 146.794 117.094 147.11 117.711 147.11C118.32 147.11 118.72 146.77 118.72 146.287V146.279C118.72 145.733 118.313 145.432 117.62 145.432H116.967V144.581H117.604C118.206 144.581 118.594 144.265 118.594 143.802V143.794C118.594 143.319 118.265 143.026 117.703 143.026C117.141 143.026 116.765 143.331 116.718 143.806L116.714 143.841H115.613L115.617 143.794C115.701 142.773 116.504 142.108 117.703 142.108C118.93 142.108 119.721 142.725 119.721 143.635V143.643C119.721 144.356 119.199 144.819 118.53 144.957V144.981C119.381 145.06 119.935 145.551 119.935 146.327V146.335C119.935 147.371 119.045 148.072 117.711 148.072ZM123.157 148.092C121.748 148.092 120.889 146.936 120.889 145.092V145.084C120.889 143.236 121.748 142.088 123.157 142.088C124.57 142.088 125.424 143.236 125.424 145.084V145.092C125.424 146.936 124.57 148.092 123.157 148.092ZM123.157 147.146C123.833 147.146 124.217 146.382 124.217 145.092V145.084C124.217 143.79 123.833 143.034 123.157 143.034C122.484 143.034 122.1 143.79 122.1 145.084V145.092C122.1 146.382 122.484 147.146 123.157 147.146ZM128.705 148.092C127.296 148.092 126.438 146.936 126.438 145.092V145.084C126.438 143.236 127.296 142.088 128.705 142.088C130.118 142.088 130.973 143.236 130.973 145.084V145.092C130.973 146.936 130.118 148.092 128.705 148.092ZM128.705 147.146C129.382 147.146 129.766 146.382 129.766 145.092V145.084C129.766 143.79 129.382 143.034 128.705 143.034C128.033 143.034 127.649 143.79 127.649 145.084V145.092C127.649 146.382 128.033 147.146 128.705 147.146Z" fill="#0D1721"/>
<path d="M575.814 148.072C574.441 148.072 573.495 147.387 573.495 146.398V146.39C573.495 145.646 574.049 145.096 574.828 144.941V144.918C574.16 144.755 573.704 144.273 573.704 143.651V143.643C573.704 142.757 574.571 142.108 575.814 142.108C577.053 142.108 577.923 142.757 577.923 143.643V143.651C577.923 144.273 577.464 144.751 576.799 144.918V144.941C577.575 145.092 578.133 145.646 578.133 146.39V146.398C578.133 147.387 577.187 148.072 575.814 148.072ZM575.814 144.558C576.36 144.558 576.74 144.233 576.74 143.766V143.758C576.74 143.291 576.356 142.971 575.814 142.971C575.268 142.971 574.884 143.291 574.884 143.758V143.766C574.884 144.233 575.264 144.558 575.814 144.558ZM575.814 147.201C576.439 147.201 576.882 146.833 576.882 146.319V146.311C576.882 145.796 576.447 145.424 575.814 145.424C575.181 145.424 574.741 145.796 574.741 146.311V146.319C574.741 146.833 575.185 147.201 575.814 147.201ZM581.363 148.092C579.954 148.092 579.095 146.936 579.095 145.092V145.084C579.095 143.236 579.954 142.088 581.363 142.088C582.775 142.088 583.63 143.236 583.63 145.084V145.092C583.63 146.936 582.775 148.092 581.363 148.092ZM581.363 147.146C582.039 147.146 582.423 146.382 582.423 145.092V145.084C582.423 143.79 582.039 143.034 581.363 143.034C580.69 143.034 580.306 143.79 580.306 145.084V145.092C580.306 146.382 580.69 147.146 581.363 147.146ZM586.911 148.092C585.502 148.092 584.643 146.936 584.643 145.092V145.084C584.643 143.236 585.502 142.088 586.911 142.088C588.324 142.088 589.179 143.236 589.179 145.084V145.092C589.179 146.936 588.324 148.092 586.911 148.092ZM586.911 147.146C587.588 147.146 587.972 146.382 587.972 145.092V145.084C587.972 143.79 587.588 143.034 586.911 143.034C586.238 143.034 585.854 143.79 585.854 145.084V145.092C585.854 146.382 586.238 147.146 586.911 147.146Z" fill="white"/>
<path d="M102 78H142V121H102V78Z" fill="url(#paint2_linear_873_27874)"/>
<path d="M562 78H602V121H562V78Z" fill="url(#paint3_linear_873_27874)"/>
<path d="M352 78H522V121H352V78Z" fill="url(#paint4_linear_873_27874)"/>
<path d="M182 78H352V121H182V78Z" fill="url(#paint5_linear_873_27874)"/>
<rect x="182" y="121" width="170" height="8" fill="#25A1F4" stroke="#D9D9D9" stroke-width="0.5"/>
<rect x="352" y="121" width="170" height="8" fill="#0070BA" stroke="#D9D9D9" stroke-width="0.5"/>
<rect x="182" y="129" width="170" height="8" fill="#D09123" stroke="#D9D9D9" stroke-width="0.5"/>
<rect x="352" y="129" width="170" height="8" fill="#906518" stroke="#D9D9D9" stroke-width="0.5"/>
<rect x="182" y="137" width="170" height="8" fill="#9399D8" stroke="#D9D9D9" stroke-width="0.5"/>
<rect x="352" y="137" width="170" height="8" fill="#5B64C3" stroke="#D9D9D9" stroke-width="0.5"/>
<rect x="182" y="145" width="170" height="8" fill="#68AD6B" stroke="#D9D9D9" stroke-width="0.5"/>
<rect x="352" y="145" width="170" height="8" fill="#3D7A3F" stroke="#D9D9D9" stroke-width="0.5"/>
<rect x="182" y="160" width="170" height="8" fill="#BA9A2A" stroke="#D9D9D9" stroke-width="0.5"/>
<rect x="182" y="153" width="170" height="8" fill="#DE8583" stroke="#D9D9D9" stroke-width="0.5"/>
<rect x="352" y="153" width="170" height="8" fill="#C83734" stroke="#D9D9D9" stroke-width="0.5"/>
<rect x="352" y="161" width="170" height="7" fill="#F1C837" stroke="#D9D9D9" stroke-width="0.5"/>
<rect x="182" y="168" width="170" height="8" fill="#AE93C4" stroke="#D9D9D9" stroke-width="0.5"/>
<rect x="352" y="168" width="170" height="8" fill="#855BA6" stroke="#D9D9D9" stroke-width="0.5"/>
<path d="M260.743 148.146C259.52 148.146 258.712 147.418 258.645 146.464L258.641 146.409H259.726L259.733 146.437C259.817 146.856 260.208 147.193 260.747 147.193C261.36 147.193 261.787 146.761 261.787 146.148V146.14C261.787 145.53 261.356 145.107 260.751 145.107C260.462 145.107 260.216 145.19 260.026 145.352C259.919 145.439 259.824 145.546 259.761 145.669H258.736L259.001 142.289H262.571V143.239H259.931L259.789 144.866H259.86C260.09 144.482 260.533 144.244 261.079 144.244C262.144 144.244 262.911 145.028 262.911 146.116V146.124C262.911 147.327 262.025 148.146 260.743 148.146ZM266.157 148.146C264.748 148.146 263.889 146.991 263.889 145.147V145.139C263.889 143.29 264.748 142.143 266.157 142.143C267.57 142.143 268.424 143.29 268.424 145.139V145.147C268.424 146.991 267.57 148.146 266.157 148.146ZM266.157 147.201C266.833 147.201 267.217 146.437 267.217 145.147V145.139C267.217 143.844 266.833 143.089 266.157 143.089C265.484 143.089 265.1 143.844 265.1 145.139V145.147C265.1 146.437 265.484 147.201 266.157 147.201ZM271.705 148.146C270.296 148.146 269.438 146.991 269.438 145.147V145.139C269.438 143.29 270.296 142.143 271.705 142.143C273.118 142.143 273.973 143.29 273.973 145.139V145.147C273.973 146.991 273.118 148.146 271.705 148.146ZM271.705 147.201C272.382 147.201 272.766 146.437 272.766 145.147V145.139C272.766 143.844 272.382 143.089 271.705 143.089C271.033 143.089 270.649 143.844 270.649 145.139V145.147C270.649 146.437 271.033 147.201 271.705 147.201Z" fill="#0D1721"/>
<path d="M431.853 148.146C430.528 148.146 429.495 147.208 429.495 145.198V145.19C429.495 143.279 430.397 142.143 431.857 142.143C432.962 142.143 433.785 142.796 433.959 143.69L433.967 143.73H432.799L432.784 143.694C432.649 143.338 432.324 143.096 431.861 143.096C431.034 143.096 430.674 143.908 430.631 144.945C430.627 144.988 430.627 145.032 430.627 145.075H430.706C430.912 144.632 431.39 144.24 432.178 144.24C433.29 144.24 434.042 145.032 434.042 146.112V146.12C434.042 147.288 433.14 148.146 431.853 148.146ZM430.805 146.136C430.805 146.738 431.264 147.201 431.846 147.201C432.423 147.201 432.886 146.745 432.886 146.16V146.152C432.886 145.554 432.451 145.119 431.853 145.119C431.264 145.119 430.805 145.542 430.805 146.132V146.136ZM437.315 148.146C435.906 148.146 435.047 146.991 435.047 145.147V145.139C435.047 143.29 435.906 142.143 437.315 142.143C438.728 142.143 439.583 143.29 439.583 145.139V145.147C439.583 146.991 438.728 148.146 437.315 148.146ZM437.315 147.201C437.992 147.201 438.376 146.437 438.376 145.147V145.139C438.376 143.844 437.992 143.089 437.315 143.089C436.642 143.089 436.258 143.844 436.258 145.139V145.147C436.258 146.437 436.642 147.201 437.315 147.201ZM442.864 148.146C441.455 148.146 440.596 146.991 440.596 145.147V145.139C440.596 143.29 441.455 142.143 442.864 142.143C444.277 142.143 445.131 143.29 445.131 145.139V145.147C445.131 146.991 444.277 148.146 442.864 148.146ZM442.864 147.201C443.54 147.201 443.924 146.437 443.924 145.147V145.139C443.924 143.844 443.54 143.089 442.864 143.089C442.191 143.089 441.807 143.844 441.807 145.139V145.147C441.807 146.437 442.191 147.201 442.864 147.201Z" fill="white"/>
<rect x="197" y="213.5" width="11" height="11" fill="#F5B819"/>
<path d="M215.529 223.183C213.832 223.183 212.736 222.291 212.623 221.029L212.618 220.97H213.584L213.59 221.029C213.66 221.802 214.465 222.291 215.583 222.291C216.635 222.291 217.403 221.749 217.403 220.959V220.954C217.403 220.309 216.958 219.869 215.894 219.632L215.035 219.444C213.482 219.101 212.811 218.386 212.811 217.264V217.258C212.816 215.975 213.939 215.067 215.54 215.067C217.086 215.067 218.166 215.98 218.247 217.135L218.252 217.21H217.285L217.274 217.14C217.167 216.458 216.522 215.953 215.513 215.958C214.546 215.964 213.799 216.42 213.799 217.231V217.237C213.799 217.854 214.224 218.273 215.276 218.504L216.136 218.698C217.752 219.058 218.392 219.708 218.392 220.825V220.83C218.392 222.28 217.258 223.183 215.529 223.183ZM221.824 223.102C220.508 223.102 219.831 222.329 219.831 220.959V217.21H220.766V220.733C220.766 221.775 221.142 222.275 222.065 222.275C223.086 222.275 223.628 221.652 223.628 220.637V217.21H224.563V223H223.628V222.135H223.542C223.258 222.753 222.672 223.102 221.824 223.102ZM226.309 223V217.21H227.243V218.069H227.329C227.549 217.462 228.092 217.108 228.876 217.108C229.053 217.108 229.252 217.129 229.343 217.146V218.053C229.15 218.021 228.973 218 228.769 218C227.877 218 227.243 218.563 227.243 219.412V223H226.309ZM231.207 223V217.983H230.246V217.21H231.207V216.565C231.207 215.411 231.787 214.857 232.888 214.857C233.114 214.857 233.318 214.874 233.511 214.911V215.658C233.398 215.636 233.243 215.631 233.076 215.631C232.41 215.631 232.142 215.958 232.142 216.592V217.21H233.458V217.983H232.142V223H231.207ZM236.234 223.102C235.133 223.102 234.301 222.436 234.301 221.383V221.373C234.301 220.341 235.063 219.745 236.412 219.665L238.071 219.562V219.036C238.071 218.322 237.636 217.935 236.771 217.935C236.079 217.935 235.622 218.193 235.472 218.644L235.466 218.66H234.532L234.537 218.628C234.688 217.72 235.568 217.108 236.804 217.108C238.216 217.108 239.006 217.833 239.006 219.036V223H238.071V222.146H237.985C237.62 222.764 237.013 223.102 236.234 223.102ZM235.257 221.362C235.257 221.947 235.756 222.291 236.428 222.291C237.378 222.291 238.071 221.668 238.071 220.841V220.314L236.524 220.411C235.644 220.465 235.257 220.776 235.257 221.351V221.362ZM243.083 223.102C241.46 223.102 240.424 221.926 240.424 220.089V220.078C240.424 218.279 241.455 217.108 243.077 217.108C244.484 217.108 245.328 217.919 245.5 218.95L245.505 218.982H244.576L244.57 218.966C244.425 218.397 243.91 217.935 243.077 217.935C242.035 217.935 241.38 218.773 241.38 220.078V220.089C241.38 221.421 242.046 222.275 243.077 222.275C243.856 222.275 244.35 221.931 244.565 221.287L244.576 221.254L245.5 221.249L245.489 221.308C245.252 222.355 244.474 223.102 243.083 223.102ZM249.232 223.102C247.578 223.102 246.579 221.942 246.579 220.126V220.121C246.579 218.333 247.6 217.108 249.173 217.108C250.747 217.108 251.703 218.279 251.703 220.008V220.374H247.535C247.562 221.571 248.223 222.27 249.254 222.27C250.038 222.27 250.521 221.899 250.677 221.55L250.699 221.501H251.633L251.623 221.544C251.424 222.329 250.597 223.102 249.232 223.102ZM249.168 217.94C248.309 217.94 247.653 218.526 247.551 219.627H250.752C250.656 218.483 250.022 217.94 249.168 217.94ZM256.365 223V215.25H257.332V222.13H261.07V223H256.365ZM262.993 216.093C262.639 216.093 262.349 215.803 262.349 215.448C262.349 215.094 262.639 214.804 262.993 214.804C263.348 214.804 263.638 215.094 263.638 215.448C263.638 215.803 263.348 216.093 262.993 216.093ZM262.521 223V217.21H263.455V223H262.521ZM267.602 225.041C266.205 225.041 265.313 224.413 265.168 223.462L265.179 223.457H266.146L266.151 223.462C266.253 223.902 266.769 224.214 267.602 224.214C268.638 224.214 269.256 223.725 269.256 222.871V221.7H269.17C268.805 222.339 268.149 222.699 267.354 222.699C265.856 222.699 264.927 221.539 264.927 219.917V219.906C264.927 218.284 265.861 217.108 267.376 217.108C268.192 217.108 268.826 217.511 269.181 218.166H269.245V217.21H270.18V222.919C270.18 224.214 269.181 225.041 267.602 225.041ZM267.559 221.872C268.633 221.872 269.277 221.066 269.277 219.917V219.906C269.277 218.757 268.627 217.935 267.559 217.935C266.484 217.935 265.883 218.757 265.883 219.906V219.917C265.883 221.066 266.484 221.872 267.559 221.872ZM271.974 223V214.911H272.908V218.08H272.994C273.284 217.468 273.827 217.108 274.681 217.108C275.98 217.108 276.706 217.876 276.706 219.251V223H275.771V219.477C275.771 218.435 275.341 217.935 274.417 217.935C273.494 217.935 272.908 218.558 272.908 219.573V223H271.974ZM280.455 223.043C279.262 223.043 278.763 222.603 278.763 221.496V217.983H277.85V217.21H278.763V215.711H279.729V217.21H280.997V217.983H279.729V221.26C279.729 221.942 279.966 222.216 280.567 222.216C280.734 222.216 280.825 222.21 280.997 222.194V222.989C280.814 223.021 280.637 223.043 280.455 223.043Z" fill="#0D1721"/>
<rect x="298" y="213.5" width="11" height="11" fill="#A17707"/>
<path d="M316.529 223.183C314.832 223.183 313.736 222.291 313.623 221.029L313.618 220.97H314.584L314.59 221.029C314.66 221.802 315.465 222.291 316.583 222.291C317.635 222.291 318.403 221.749 318.403 220.959V220.954C318.403 220.309 317.958 219.869 316.894 219.632L316.035 219.444C314.482 219.101 313.811 218.386 313.811 217.264V217.258C313.816 215.975 314.939 215.067 316.54 215.067C318.086 215.067 319.166 215.98 319.247 217.135L319.252 217.21H318.285L318.274 217.14C318.167 216.458 317.522 215.953 316.513 215.958C315.546 215.964 314.799 216.42 314.799 217.231V217.237C314.799 217.854 315.224 218.273 316.276 218.504L317.136 218.698C318.752 219.058 319.392 219.708 319.392 220.825V220.83C319.392 222.28 318.258 223.183 316.529 223.183ZM322.824 223.102C321.508 223.102 320.831 222.329 320.831 220.959V217.21H321.766V220.733C321.766 221.775 322.142 222.275 323.065 222.275C324.086 222.275 324.628 221.652 324.628 220.637V217.21H325.563V223H324.628V222.135H324.542C324.258 222.753 323.672 223.102 322.824 223.102ZM327.309 223V217.21H328.243V218.069H328.329C328.549 217.462 329.092 217.108 329.876 217.108C330.053 217.108 330.252 217.129 330.343 217.146V218.053C330.15 218.021 329.973 218 329.769 218C328.877 218 328.243 218.563 328.243 219.412V223H327.309ZM332.207 223V217.983H331.246V217.21H332.207V216.565C332.207 215.411 332.787 214.857 333.888 214.857C334.114 214.857 334.318 214.874 334.511 214.911V215.658C334.398 215.636 334.243 215.631 334.076 215.631C333.41 215.631 333.142 215.958 333.142 216.592V217.21H334.458V217.983H333.142V223H332.207ZM337.234 223.102C336.133 223.102 335.301 222.436 335.301 221.383V221.373C335.301 220.341 336.063 219.745 337.412 219.665L339.071 219.562V219.036C339.071 218.322 338.636 217.935 337.771 217.935C337.079 217.935 336.622 218.193 336.472 218.644L336.466 218.66H335.532L335.537 218.628C335.688 217.72 336.568 217.108 337.804 217.108C339.216 217.108 340.006 217.833 340.006 219.036V223H339.071V222.146H338.985C338.62 222.764 338.013 223.102 337.234 223.102ZM336.257 221.362C336.257 221.947 336.756 222.291 337.428 222.291C338.378 222.291 339.071 221.668 339.071 220.841V220.314L337.524 220.411C336.644 220.465 336.257 220.776 336.257 221.351V221.362ZM344.083 223.102C342.46 223.102 341.424 221.926 341.424 220.089V220.078C341.424 218.279 342.455 217.108 344.077 217.108C345.484 217.108 346.328 217.919 346.5 218.95L346.505 218.982H345.576L345.57 218.966C345.425 218.397 344.91 217.935 344.077 217.935C343.035 217.935 342.38 218.773 342.38 220.078V220.089C342.38 221.421 343.046 222.275 344.077 222.275C344.856 222.275 345.35 221.931 345.565 221.287L345.576 221.254L346.5 221.249L346.489 221.308C346.252 222.355 345.474 223.102 344.083 223.102ZM350.232 223.102C348.578 223.102 347.579 221.942 347.579 220.126V220.121C347.579 218.333 348.6 217.108 350.173 217.108C351.747 217.108 352.703 218.279 352.703 220.008V220.374H348.535C348.562 221.571 349.223 222.27 350.254 222.27C351.038 222.27 351.521 221.899 351.677 221.55L351.699 221.501H352.633L352.623 221.544C352.424 222.329 351.597 223.102 350.232 223.102ZM350.168 217.94C349.309 217.94 348.653 218.526 348.551 219.627H351.752C351.656 218.483 351.022 217.94 350.168 217.94ZM357.365 223V215.25H360.024C362.323 215.25 363.682 216.684 363.682 219.117V219.127C363.682 221.566 362.328 223 360.024 223H357.365ZM358.332 222.13H359.959C361.689 222.13 362.693 221.023 362.693 219.138V219.127C362.693 217.237 361.678 216.12 359.959 216.12H358.332V222.13ZM366.829 223.102C365.728 223.102 364.896 222.436 364.896 221.383V221.373C364.896 220.341 365.658 219.745 367.006 219.665L368.666 219.562V219.036C368.666 218.322 368.231 217.935 367.366 217.935C366.673 217.935 366.217 218.193 366.066 218.644L366.061 218.66H365.126L365.132 218.628C365.282 217.72 366.163 217.108 367.398 217.108C368.811 217.108 369.601 217.833 369.601 219.036V223H368.666V222.146H368.58C368.215 222.764 367.608 223.102 366.829 223.102ZM365.852 221.362C365.852 221.947 366.351 222.291 367.022 222.291C367.973 222.291 368.666 221.668 368.666 220.841V220.314L367.119 220.411C366.238 220.465 365.852 220.776 365.852 221.351V221.362ZM371.309 223V217.21H372.243V218.069H372.329C372.549 217.462 373.092 217.108 373.876 217.108C374.053 217.108 374.252 217.129 374.343 217.146V218.053C374.15 218.021 373.973 218 373.769 218C372.877 218 372.243 218.563 372.243 219.412V223H371.309ZM375.552 223V214.911H376.486V219.74H376.572L379.075 217.21H380.208L377.684 219.643L380.375 223H379.199L377.029 220.277L376.486 220.803V223H375.552Z" fill="#0D1721"/>
<rect x="397" y="213.5" width="11" height="11" fill="#D6D6D6"/>
<path d="M414.594 223L412.483 215.25H413.493L415.035 221.55H415.099L416.834 215.25H417.812L419.546 221.55H419.611L421.152 215.25H422.162L420.051 223H419.138L417.355 216.882H417.291L415.507 223H414.594ZM425.342 223.102C423.688 223.102 422.688 221.942 422.688 220.126V220.121C422.688 218.333 423.709 217.108 425.283 217.108C426.856 217.108 427.812 218.279 427.812 220.008V220.374H423.645C423.671 221.571 424.332 222.27 425.363 222.27C426.147 222.27 426.631 221.899 426.787 221.55L426.808 221.501H427.743L427.732 221.544C427.533 222.329 426.706 223.102 425.342 223.102ZM425.277 217.94C424.418 217.94 423.763 218.526 423.661 219.627H426.862C426.765 218.483 426.131 217.94 425.277 217.94ZM430.853 223.102C429.751 223.102 428.919 222.436 428.919 221.383V221.373C428.919 220.341 429.682 219.745 431.03 219.665L432.689 219.562V219.036C432.689 218.322 432.254 217.935 431.39 217.935C430.697 217.935 430.24 218.193 430.09 218.644L430.084 218.66H429.15L429.155 218.628C429.306 217.72 430.187 217.108 431.422 217.108C432.834 217.108 433.624 217.833 433.624 219.036V223H432.689V222.146H432.604C432.238 222.764 431.631 223.102 430.853 223.102ZM429.875 221.362C429.875 221.947 430.375 222.291 431.046 222.291C431.997 222.291 432.689 221.668 432.689 220.841V220.314L431.143 220.411C430.262 220.465 429.875 220.776 429.875 221.351V221.362ZM435.386 223V214.911H436.32V219.74H436.406L438.909 217.21H440.042L437.518 219.643L440.209 223H439.033L436.863 220.277L436.32 220.803V223H435.386Z" fill="#0D1721"/>
<rect x="457" y="213.5" width="11" height="11" fill="#707070"/>
<path d="M475.529 223.183C473.832 223.183 472.736 222.291 472.623 221.029L472.618 220.97H473.584L473.59 221.029C473.66 221.802 474.465 222.291 475.583 222.291C476.635 222.291 477.403 221.749 477.403 220.959V220.954C477.403 220.309 476.958 219.869 475.894 219.632L475.035 219.444C473.482 219.101 472.811 218.386 472.811 217.264V217.258C472.816 215.975 473.939 215.067 475.54 215.067C477.086 215.067 478.166 215.98 478.247 217.135L478.252 217.21H477.285L477.274 217.14C477.167 216.458 476.522 215.953 475.513 215.958C474.546 215.964 473.799 216.42 473.799 217.231V217.237C473.799 217.854 474.224 218.273 475.276 218.504L476.136 218.698C477.752 219.058 478.392 219.708 478.392 220.825V220.83C478.392 222.28 477.258 223.183 475.529 223.183ZM481.942 223.043C480.75 223.043 480.25 222.603 480.25 221.496V217.983H479.337V217.21H480.25V215.711H481.217V217.21H482.484V217.983H481.217V221.26C481.217 221.942 481.453 222.216 482.055 222.216C482.221 222.216 482.312 222.21 482.484 222.194V222.989C482.302 223.021 482.125 223.043 481.942 223.043ZM483.881 223V217.21H484.815V218.069H484.901C485.122 217.462 485.664 217.108 486.448 217.108C486.625 217.108 486.824 217.129 486.916 217.146V218.053C486.722 218.021 486.545 218 486.341 218C485.449 218 484.815 218.563 484.815 219.412V223H483.881ZM490.289 223.102C488.64 223.102 487.619 221.963 487.619 220.11V220.1C487.619 218.241 488.64 217.108 490.289 217.108C491.938 217.108 492.958 218.241 492.958 220.1V220.11C492.958 221.963 491.938 223.102 490.289 223.102ZM490.289 222.275C491.384 222.275 492.002 221.475 492.002 220.11V220.1C492.002 218.73 491.384 217.935 490.289 217.935C489.193 217.935 488.575 218.73 488.575 220.1V220.11C488.575 221.475 489.193 222.275 490.289 222.275ZM494.408 223V217.21H495.343V218.08H495.429C495.719 217.468 496.261 217.108 497.115 217.108C498.415 217.108 499.14 217.876 499.14 219.251V223H498.206V219.477C498.206 218.435 497.776 217.935 496.852 217.935C495.928 217.935 495.343 218.558 495.343 219.573V223H494.408ZM503.217 225.041C501.82 225.041 500.929 224.413 500.784 223.462L500.794 223.457H501.761L501.767 223.462C501.869 223.902 502.384 224.214 503.217 224.214C504.253 224.214 504.871 223.725 504.871 222.871V221.7H504.785C504.42 222.339 503.765 222.699 502.97 222.699C501.471 222.699 500.542 221.539 500.542 219.917V219.906C500.542 218.284 501.477 217.108 502.991 217.108C503.808 217.108 504.441 217.511 504.796 218.166H504.86V217.21H505.795V222.919C505.795 224.214 504.796 225.041 503.217 225.041ZM503.174 221.872C504.248 221.872 504.893 221.066 504.893 219.917V219.906C504.893 218.757 504.243 217.935 503.174 217.935C502.1 217.935 501.498 218.757 501.498 219.906V219.917C501.498 221.066 502.1 221.872 503.174 221.872Z" fill="#0D1721"/>
<path d="M266.924 75.7662C266.777 76.0002 266.468 76.0709 266.234 75.9242L262.422 73.5333C262.188 73.3866 262.117 73.078 262.264 72.844C262.411 72.6101 262.719 72.5394 262.953 72.6861L266.342 74.8113L268.467 71.4226C268.614 71.1887 268.923 71.118 269.157 71.2647C269.39 71.4114 269.461 71.72 269.314 71.9539L266.924 75.7662ZM266.5 75.5006L266.013 75.6122C264.044 67.0229 256.318 59.3728 245.126 53.625C233.952 47.8864 219.415 44.0945 204.008 43.1732C173.174 41.3293 139.039 50.9824 121.424 79.2648L121 79.0005L120.576 78.7362C138.461 50.0182 173.042 40.3196 204.067 42.175C219.589 43.1032 234.266 46.9236 245.583 52.7355C256.882 58.538 264.922 66.3764 266.987 75.3889L266.5 75.5006Z" fill="#F5B819"/>
<path d="M580.924 75.3111C580.777 75.5451 580.468 75.6158 580.234 75.4691L576.422 73.0782C576.188 72.9315 576.117 72.6229 576.264 72.3889C576.411 72.155 576.719 72.0843 576.953 72.231L580.342 74.3562L582.467 70.9675C582.614 70.7336 582.923 70.6629 583.157 70.8096C583.39 70.9563 583.461 71.2649 583.314 71.4988L580.924 75.3111ZM580.5 75.0455L580.013 75.1572C578.044 66.5678 570.318 58.9178 559.126 53.1699C547.952 47.4314 533.415 43.6395 518.008 42.7181C487.174 40.8742 453.039 50.5274 435.424 78.8097L435 78.5454L434.576 78.2811C452.461 49.5632 487.042 39.8645 518.067 41.7199C533.589 42.6481 548.266 46.4686 559.583 52.2804C570.882 58.0829 578.922 65.9213 580.987 74.9338L580.5 75.0455Z" fill="#F5B819"/>
<defs>
<linearGradient id="paint0_linear_873_27874" x1="187" y1="24" x2="187" y2="176" gradientUnits="userSpaceOnUse">
<stop stop-color="#D6D6D6"/>
<stop offset="1" stop-color="#D6D6D6" stop-opacity="0.1"/>
</linearGradient>
<linearGradient id="paint1_linear_873_27874" x1="517" y1="24" x2="517" y2="176" gradientUnits="userSpaceOnUse">
<stop stop-color="#707070"/>
<stop offset="1" stop-color="#707070" stop-opacity="0.1"/>
</linearGradient>
<linearGradient id="paint2_linear_873_27874" x1="122" y1="78" x2="122" y2="121" gradientUnits="userSpaceOnUse">
<stop stop-color="#F5B819"/>
<stop offset="1" stop-color="#F5B819" stop-opacity="0.1"/>
</linearGradient>
<linearGradient id="paint3_linear_873_27874" x1="582" y1="78" x2="582" y2="121" gradientUnits="userSpaceOnUse">
<stop stop-color="#A17707"/>
<stop offset="1" stop-color="#A17707" stop-opacity="0.1"/>
</linearGradient>
<linearGradient id="paint4_linear_873_27874" x1="437" y1="78" x2="437" y2="121" gradientUnits="userSpaceOnUse">
<stop stop-color="#F5B819"/>
<stop offset="1" stop-color="#F5B819" stop-opacity="0.1"/>
</linearGradient>
<linearGradient id="paint5_linear_873_27874" x1="267" y1="78" x2="267" y2="121" gradientUnits="userSpaceOnUse">
<stop stop-color="#A17707"/>
<stop offset="1" stop-color="#A17707" stop-opacity="0.1"/>
</linearGradient>
</defs>
</svg>
